<?xml version="1.0" encoding="UTF-8" standalone="no"?>
<svg
   version="1.1"
   style="display:block"
   viewBox="0 0 659.25818 659.25775"
   width="329.62909"
   height="329.62888"
   preserveAspectRatio="none"
   id="svg120"
   sodipodi:docname="logo.svg"
   inkscape:version="1.4.2 (ebf0e940, 2025-05-08)"
   xmlns:inkscape="http://www.inkscape.org/namespaces/inkscape"
   xmlns:sodipodi="http://sodipodi.sourceforge.net/DTD/sodipodi-0.dtd"
   xmlns="http://www.w3.org/2000/svg"
   xmlns:svg="http://www.w3.org/2000/svg">
  <sodipodi:namedview
     id="namedview120"
     pagecolor="#ffffff"
     bordercolor="#000000"
     borderopacity="0.25"
     inkscape:showpageshadow="2"
     inkscape:pageopacity="0.0"
     inkscape:pagecheckerboard="0"
     inkscape:deskcolor="#d1d1d1"
     inkscape:zoom="0.8125"
     inkscape:cx="164.30769"
     inkscape:cy="215.38462"
     inkscape:window-width="1680"
     inkscape:window-height="1371"
     inkscape:window-x="92"
     inkscape:window-y="34"
     inkscape:window-maximized="0"
     inkscape:current-layer="svg120" />
  <defs
     id="defs2">
    <linearGradient
       id="Gradient1"
       gradientUnits="userSpaceOnUse"
       x1="1027.05"
       y1="568.40198"
       x2="1020.92"
       y2="360.599"
       gradientTransform="translate(-694.4968,-127.09784)">
      <stop
         class="stop0"
         offset="0"
         stop-opacity="1"
         stop-color="rgb(8,9,18)"
         id="stop1" />
      <stop
         class="stop1"
         offset="1"
         stop-opacity="1"
         stop-color="rgb(19,32,57)"
         id="stop2" />
    </linearGradient>
  </defs>
  <path
     fill="#86858d"
     d="M 305.0082,0.93616205 C 486.5932,-12.665838 644.8132,123.55716 658.3332,305.15016 c 13.52,181.594 -122.77,339.748 -304.37,353.193 C 172.4762,671.77916 14.440204,535.58916 0.92520444,354.10716 -12.588796,172.62516 123.5322,14.530162 305.0082,0.93616205 Z"
     id="path3" />
  <path
     fill="#f2c883"
     d="m 309.8032,15.035162 c 173.85,-10.959 323.63,121.164998 334.45,295.021998 10.82,173.857 -121.43,323.531 -295.29,334.209 -173.669,10.665 -323.133996,-121.396 -333.939996,-295.054 C 4.2172044,175.55416 136.1572,25.982162 309.8032,15.035162 Z"
     id="path4" />
  <path
     fill="#f4f7fd"
     d="m 316.5932,20.111162 c 170.8,-7.149 315.1,125.449998 322.38,296.251998 7.28,170.802 -125.2,315.201 -296,322.614 -170.984,7.421 -315.574996,-125.244 -322.863996,-296.232 C 12.820204,171.75716 145.5962,27.268162 316.5932,20.111162 Z"
     id="path5" />
  <path
     fill="#4791dc"
     d="m 310.8932,29.011162 c 165.71,-10.359 308.54,115.354998 319.31,281.038998 10.77,165.685 -114.59,308.829 -280.25,320.008 -166.236,11.217 -309.990996,-114.678 -320.796996,-280.944 C 18.349204,182.84916 144.6002,39.406162 310.8932,29.011162 Z"
     id="path6" />
  <path
     fill="#f4f7fd"
     d="m 226.1622,89.549162 c 5.818,-3.989 13.056,-7.235 19.448,-10.361 l 1.184,1.871 c -1.946,2.69 -1.948,3.335 -2.443,6.654 3.304,7.912 12.464,3.708 17.116,7.075 l 0.72,-1.097 c 10e-4,5.072 -2.297,3.458 -0.021,6.776998 3.134,1.177 16.635,1.643 16.766,1.882 -3.283,0.391 -7.512,0.334 -10.741,-0.397 0.142,8.391 2.424,9.38 2.7,15.881 l 2.719,1.573 c -0.878,6.263 -7.106,4.972 -9.233,10.718 -0.142,3.227 -0.201,3.711 1.283,6.55 4.214,1.898 22.589,-4.56 29.561,-5.835 10.072,-1.842 29.942,-1.371 37.752,-3.216 l -0.11,-24.357 c 9.79,0.059 13.47,-0.682 23.88,0.122 11.33,-1.007 27.01,-0.577 38.7,-0.516 3.38,8.39 14.49,40.703 19.41,44.364 l 2.79,0.594 c 2.14,-4.6 -12.37,-38.36 -15.33,-44.963 10.82,-0.051 53.35,-1.202 61.16,1.667 l 0.65,1.434 c -2.45,4.193 -4.22,6.376 -7.28,10.19 -0.18,5.202 -0.05,9.804 -1.94,14.67 l -0.23,0.621 c -1.94,4.974 -7.11,10.721 -10.61,14.924 1.4,3.279 2.14,6.242 5.04,7.976 4.85,1.127 23.18,-4.466 27.66,-6.999 0.18,-1.222 0.57,-1.567 -0.1,-2.522 -3.29,-4.695 0.04,-16.258 2.81,-20.928 8.79,9.316 -7.38,27.5 21.72,18.992 8.13,-1.727 14.98,-3.442 22.99,-5.667 -3.68,19.29 -12.58,59.612 -14.42,77.549 7.64,5.225 10.85,19.608 18.56,21.974 l 1.29,-1.105 c 0.21,-4.401 -0.82,-10.946 0.5,-13.749 l 1.97,-0.998 c 8.05,5.451 13.91,25.48 15.73,34.748 2.17,12.933 12.55,58.335 9.75,70.837 -5.41,7.378 -14.18,0.801 -20.07,3.946 -1.09,2.46 -0.71,1.762 -0.02,4.989 3.54,1.566 16.03,1.002 20.54,0.975 0.08,32.34 -7.35,69.311 -18.06,99.624 -1.04,2.92 -5.79,16.125 -7.84,16.659 -4.58,1.191 -27.1,1.733 -30.8,-0.807 -1.98,2.542 -4.7,4.909 -4.6,7.462 2.91,1.162 4.46,0.978 7.57,1.045 l 25.9,0.017 c -7.36,15.797 -13.98,28.289 -23.55,42.893 -10.64,17.565 -31.01,41.729 -45.68,55.251 -18.71,0.194 -37.42,0.26 -56.13,0.199 2.33,-4.964 13.71,-31.227 13.45,-35.582 -11.63,0.373 -14.43,30.158 -22.41,36.309 -9.01,-1.472 -51.3,-0.613 -62.77,-0.547 0.16,-4.827 1.61,-13.823 -3.91,-15.406 -4.42,3.316 -3.22,10.098 -3.16,15.277 -17.45,-0.012 -44.195,-0.852 -60.722,0.546 l -1.98,-0.428 c -5.433,-3.885 -12.471,-25.997 -14.632,-32.41 l -22.253,-10.73 -28.797,6.919 c 2.76,10.115 12.145,27.671 12.924,35.453 -2.871,1.349 -8.587,0.716 -12.054,0.583 -9.435,-9.616 -16.962,-17.915 -25.993,-27.7 -2.532,-1.08 -6.208,-1.22 -7.812,1.287 7.617,8.974 15.518,17.703 23.691,26.174 -11.017,0.296 -22.039,0.292 -33.056,-0.012 -34.105,-24.567 -61.728996,-61.957 -81.669996,-98.494 15.853,0.102 31.706996,0.12 47.559996,0.053 3.259,7.111 17.646,37.094 22.894,40.287 l 1.619,-0.501 c 2.964,-6.95 -12.712,-31.061 -16.373,-39.28 4.667,-0.251 20.835,0.155 23.804,-1.447 l 0.901,-3.492 c -4.436,-5.58 -22.681,1.98 -30.443,-5.226 l -1.353,-0.443 c -12.122,-24.108 -27.836996,-96.481 -21.689,-123.787 0.605,-4.06 -0.037,-4.765 2.421,-7.133 4.943,0.458 9.407,7.132 15.051,11.008 l 4.573,2.327 c -0.447,-12.511 1.479,-21.144 2.659,-33.476 l -0.93,-1.048 c -7.934,0.989 -15.724,15.203 -21.342,8.994 -1.308,-6.079 2.956,-29.417 4.706,-36.236 6.254,-7.311 24.281,0.481 26.695,-5.32 15.115,-36.326 35.914,-66.979 66.866,-91.813 4.158,-3.335 15.39,-10.027 17.844,-12.976 -8.413,-1.871 -4.52,-7.978 -7.193,-10.284 -18.639,-16.088 -19.668,0.244 -23.049,15.035 -1.12,4.896 -4.82,6.16 -8.909,8.474 -0.735,4.068 -0.902,11.667 -5.812,11.792 -3.683,-4.29 -2.306,-9.689 -1.699,-14.903 -7.264,-4.486 -11.364,-8.21 -17.839,-13.844 5.079,-8.58 8.248,-14.082 16.053,-20.671 1.845,-5.206 13.141,-18.852 17.152,-24.016 1.741,-1.567 5.434,-5.543 7.219,-5.465 0.743,2.287 1.205,3.088 2.845,4.848 2.095,0.874 3.682,1.697 5.951,1.961 10.033,0.641 10.243,1.783 15.164,10.341 -5.994,7.017 -8.777,7.183 -17.26,10.418 l -0.163,0.96 c 6.474,2.829 7.637,3.319 12.771,7.975 4.229,3.835 12.22,6.4 16.448,0.639 1.056,-4.021 -3.239,-12.204 -5.046,-16.708 3.829,3.019 6.18,6.96 10.284,8.282 3.366,-0.081 5.678,-2.925 8.219,-5.295 -3.145,-2.51 -7.112,-5.249 -9.049,-8.666 -0.131,-10.196 -5.733,-11.26 -13.144,-18.496 -2.835,-0.297 -5.645,-0.456 -8.488,-0.639 3.326,-0.08 8.984,-0.291 11.332,-2.571998 -2.58,-2.335 -11.825,-1.743 -16.321,-1.909 4.327,-0.175 8.764,-0.126 12.956,-1.32 l 1.047,-0.458 0.639,-1.818 0.29,-3.577 c 1.114,-1.129 0.585,-0.628 2.632,-1 z"
     id="path7" />
  <path
     fill="#4994e4"
     d="m 501.3132,451.86816 c 30.86,-50.128 43.39,-99.316 31.15,-158.239 -2.48,-11.926 -8.97,-24.729 -8.1,-36.838 0.61,-8.483 18.17,-2.301 23.45,-1.146 2.17,12.933 12.55,58.335 9.75,70.837 -5.41,7.378 -14.18,0.801 -20.07,3.946 -1.09,2.46 -0.71,1.762 -0.02,4.989 3.54,1.566 16.03,1.002 20.54,0.975 0.08,32.34 -7.35,69.311 -18.06,99.624 -1.04,2.92 -5.79,16.125 -7.84,16.659 -4.58,1.191 -27.1,1.733 -30.8,-0.807 z"
     id="path8" />
  <path
     fill="#4888c0"
     d="m 226.1622,89.549162 c 5.818,-3.989 13.056,-7.235 19.448,-10.361 l 1.184,1.871 c -1.946,2.69 -1.948,3.335 -2.443,6.654 3.304,7.912 12.464,3.708 17.116,7.075 l 0.72,-1.097 c 10e-4,5.072 -2.297,3.458 -0.021,6.776998 3.134,1.177 16.635,1.643 16.766,1.882 -3.283,0.391 -7.512,0.334 -10.741,-0.397 -11.447,3.115 -13.832,34.038 -21.47,43.268 -1.836,2.218 -2.798,2.505 -5.497,2.768 l -0.703,-1.113 c 4.371,-16.931 8.932,-27.96 16.287,-43.993 l -34.733,-0.041 c -2.835,-0.297 -5.645,-0.456 -8.488,-0.639 3.326,-0.08 8.984,-0.291 11.332,-2.571998 -2.58,-2.335 -11.825,-1.743 -16.321,-1.909 4.327,-0.175 8.764,-0.126 12.956,-1.32 l 1.047,-0.458 0.639,-1.818 0.29,-3.577 c 1.114,-1.129 0.585,-0.628 2.632,-1 z"
     id="path9" />
  <path
     fill="#f4f7fd"
     d="m 226.1622,89.549162 c 5.818,-3.989 13.056,-7.235 19.448,-10.361 l 1.184,1.871 c -1.946,2.69 -1.948,3.335 -2.443,6.654 3.304,7.912 12.464,3.708 17.116,7.075 -6.356,2.098 -30.545,1.303 -38.866,1.156 l 0.639,-1.818 0.29,-3.577 c 1.114,-1.129 0.585,-0.628 2.632,-1 z"
     id="path10" />
  <path
     fill="#4994e4"
     d="m 504.2832,460.37516 25.9,0.017 c -7.36,15.797 -13.98,28.289 -23.55,42.893 -2.89,-5.104 -2.13,-35.475 -2.35,-42.91 z"
     id="path11" />
  <path
     fill="#4888c0"
     d="m 100.5892,326.13816 c 0.605,-4.06 -0.037,-4.765 2.421,-7.133 4.943,0.458 9.407,7.132 15.051,11.008 l 4.573,2.327 -0.406,2.963 c -3.831,2.85 -15.49,1.291 -20.875,1.343 0.248,27.675 4.211,55.192 11.785,81.811 1.974,6.962 10.237,26.394 10.493,31.911 l -1.353,-0.443 c -12.122,-24.108 -27.836996,-96.481 -21.689,-123.787 z"
     id="path12" />
  <path
     fill="#f4f7fd"
     d="m 100.5892,326.13816 c 0.605,-4.06 -0.037,-4.765 2.421,-7.133 4.943,0.458 9.407,7.132 15.051,11.008 -6.229,-0.069 -14.893,1.887 -17.472,-3.875 z"
     id="path13" />
  <path
     fill="#4994e4"
     d="m 332.8632,103.26716 c 9.79,0.059 13.47,-0.682 23.88,0.122 -6.41,6.555 -5.16,5.439 -2.43,14.662 -7.44,4.332 -13.29,6.448 -21.34,9.573 z"
     id="path14" />
  <path
     fill="#4791dc"
     d="m 187.8362,112.04816 c 1.741,-1.567 5.434,-5.543 7.219,-5.465 0.743,2.287 1.205,3.088 2.845,4.848 2.095,0.874 3.682,1.697 5.951,1.961 l -0.617,0.925 c -2.705,9.674 -4.932,11.016 -14.622,12.12 -0.329,-1.039 -0.075,-3.917 -0.188,-5.41 -1.003,-4.126 1.868,-1.825 -0.588,-8.979 z"
     id="path15" />
  <path
     fill="#dff2f3"
     d="m 187.8362,112.04816 c 1.741,-1.567 5.434,-5.543 7.219,-5.465 0.743,2.287 1.205,3.088 2.845,4.848 2.095,0.874 3.682,1.697 5.951,1.961 l -0.617,0.925 c -8.382,-1.185 -8.548,2.18 -14.81,6.71 -1.003,-4.126 1.868,-1.825 -0.588,-8.979 z"
     id="path16" />
  <path
     fill="#4994e4"
     d="m 187.8362,112.04816 c 2.456,7.154 -0.415,4.853 0.588,8.979 0.113,1.493 -0.141,4.371 0.188,5.41 -0.978,0.893 -1.207,0.758 -1.427,1.685 l -2.835,2.338 c -4.297,1.585 -9.983,4.477 -13.666,5.604 1.845,-5.206 13.141,-18.852 17.152,-24.016 z"
     id="path17" />
  <path
     fill="#4888c0"
     d="m 187.1852,128.12216 c 2.892,3.639 3.737,3.515 4.275,7.476 -3.482,3.095 -7.571,3.477 -10.897,-0.257 0.766,-2.67 1.551,-2.981 3.787,-4.881 z"
     id="path18" />
  <path
     fill="#86858d"
     d="m 311.1532,139.28816 c 53.49,-6.081 97.32,11.347 140.05,41.392 -3.87,4.581 -8.32,9.135 -12.45,13.523 -32.7,-23.98 -66.23,-37.204 -107.26,-37.583 -47.168,-0.538 -92.595,17.818 -126.151,50.978 -38.135,37.546 -53.764,81.402 -54.215,134.054 1.054,41.181 15.535,76.281 41.211,108.011 -4.063,4.503 -8.176,8.961 -12.337,13.374 -24.748,-26.132 -41.653,-68.131 -45.976,-103.607 -6.102,-52.3 8.897,-104.875 41.675,-146.083 34.184,-43.336 81.055,-67.738 135.453,-74.059 z"
     id="path19" />
  <path
     fill="#f2c883"
     d="m 324.4332,141.89316 c 3.28,-0.194 5.69,-0.544 8.86,0.481 2.06,3.587 1.27,4.491 1.24,9.289 -3.26,0.241 -5.67,0.645 -8.79,-0.455 -1.96,-3.304 -1.25,-4.867 -1.31,-9.315 z"
     id="path20" />
  <path
     fill="#f2c883"
     d="m 135.8362,330.78116 c 3.376,-0.098 6.037,-0.559 8.942,0.971 1.808,2.759 1.102,5.751 0.867,9.246 -3.364,0.114 -5.183,0.368 -8.439,-0.733 -2.1,-3.418 -1.323,-4.791 -1.37,-9.484 z"
     id="path21" />
  <path
     fill="#86858d"
     d="m 482.0232,211.80716 c 18.92,20.256 35.56,59.362 40.73,86.51 10.11,50.659 -0.39,103.257 -29.16,146.159 -29.52,44.108 -75.36,74.675 -127.42,84.968 -50.88,9.733 -103.533,-1.348 -146.171,-30.76 l -8.223,-6.385 c 3.973,-4.028 8.274,-9.145 12.074,-13.441 21.382,17.158 48.115,28.36 75.005,33.185 46.075,8.128 93.495,-2.367 131.835,-29.179 78.44,-54.993 100.71,-158.027 51.07,-240.134 -3.66,-6.046 -7.87,-11.923 -11.92,-17.714 z"
     id="path22" />
  <path
     fill="#f2c883"
     d="m 324.4832,519.50416 c 3.24,-0.117 5.87,-0.546 8.77,0.743 1.99,2.724 1.37,5.699 1.25,9.28 -3.3,0.122 -5.81,0.561 -8.73,-0.824 -1.98,-2.524 -1.41,-5.905 -1.29,-9.199 z"
     id="path23" />
  <path
     fill="#f2c883"
     d="m 518.4332,329.88716 3.33,1.122 c 3.55,5.548 1.04,8.879 -3.89,11.604 -1.12,-0.682 -2.32,-1.579 -3.41,-2.34 -2.56,-5.881 -2.12,-8.406 3.97,-10.386 z"
     id="path24" />
  <path
     fill="url(#Gradient1)"
     d="m 452.5632,226.87916 0.9,1.434 c -7.63,10.384 -34,35.315 -43.68,45.999 -12.22,13.483 -28.32,30.338 -41.58,42.771 -1.19,1.111 -16.44,8.987 -19.99,11.149 1.75,20.97 -9.81,34.148 -30.24,23.372 l -70.157,63.809 c -10.36,9.279 -31.472,29.233 -42.843,34.854 18.474,-19.38 37.547,-38.18 57.19,-56.373 15.628,-15.261 34.029,-33.603 50.67,-47.584 -2.42,-6.127 -2.2,-9.628 -2.19,-16.054 -8.704,-0.447 -14.144,-1.52 -21.169,-7.052 -18.177,-14.314 -35.898,-29.463 -53.57,-44.424 19.119,6.574 39.013,16.613 57.955,24.092 11.268,4.45 15.584,9.056 22.364,18.731 10.68,-5.165 13.17,-6.773 24.1,-1.258 16.59,-25.609 25.02,-29.209 49.08,-47.069 20.92,-15.642 41.98,-31.108 63.16,-46.397 z"
     id="path25"
     style="fill:url(#Gradient1)" />
  <path
     fill="#f4f7fd"
     d="m 327.5832,328.38016 c 2.73,-0.777 5.66,-0.002 7.65,2.021 1.99,2.023 2.71,4.97 1.88,7.682 -0.83,2.711 -3.07,4.753 -5.85,5.323 -4.08,0.836 -8.08,-1.701 -9.07,-5.743 -0.99,-4.042 1.39,-8.143 5.39,-9.283 z"
     id="path26" />
  <path
     fill="#86858d"
     d="m 279.8642,398.14016 0.768,2.006 c -4.321,4.395 -8.863,9.276 -12.676,14.114 -21.634,27.451 -48.239,52.843 -69.905,79.958 6.068,4.414 11.871,9.171 17.718,13.873 l -65.815,16.788 c 3.132,-20.498 9.077,-45.858 13.325,-66.523 l 15.72,18.795 c 5.599,-5.893 10.581,-12.202 16.375,-17.921 4.516,-5.347 8.835,-1.15 12.601,-1.735 8.941,-1.389 26.012,-18.729 32.408,-24.331 13.489,-11.811 27.058,-22.908 39.481,-35.024 z"
     id="path27" />
  <path
     fill="#f2c883"
     d="m 167.8092,481.39116 c 9.33,8.347 14.745,15.035 25.126,22.936 l -10.675,3.212 -21.168,5.318 c 2.436,-9.761 4.602,-21.487 6.717,-31.466 z"
     id="path28" />
  <path
     fill="#86858d"
     d="m 446.2832,165.61416 c 21.5,-4.818 44.81,-10.992 65.98,-15.445 -4.45,21.396 -8.4,45.17 -13.38,66.121 -5.47,-6.099 -10.83,-12.292 -16.09,-18.577 -4.93,5.342 -15.52,17.661 -20.96,21.583 -3.67,-1.298 -6.03,-2.521 -9.81,-1.65 -10.44,6.34 -50.89,36.308 -61.16,44.881 l -0.72,-1.866 c 23.34,-23.314 50.55,-55.548 74.12,-80.527 -6.05,-5.252 -11.62,-9.633 -17.98,-14.52 z"
     id="path29" />
  <path
     fill="#f2c883"
     d="m 500.4432,162.37616 c 0.39,3.72 -4.69,26.607 -5.73,31.616 l -11.76,-12.142 -12.97,-12.128 c 9.25,-2.692 21.07,-5.992 30.46,-7.346 z"
     id="path30" />
  <path
     fill="#0f192f"
     d="m 408.9332,323.16116 c 1.41,2.714 1.18,7.882 1.27,11.066 1.6,-0.187 2.4,-0.955 3.73,-1.877 l 2.62,0.564 c 1.39,55.766 -33.79,87.58 -87.02,94.41 l 0.84,16.998 c -13.74,-7.308 -32.696,-19.785 -46.182,-28.405 13.687,-9.399 31.732,-20.673 46.252,-28.694 l -0.65,16.903 c 49.5,-4.775 78.36,-29.185 79.14,-80.965 z"
     id="path31" />
  <path
     fill="#0f192f"
     d="m 329.4032,227.61216 c 12.51,5.906 33.96,20.332 45.75,27.914 -13.11,8.325 -32.48,21.439 -45.77,28.262 l 0.08,-16.369 c -6.44,0.244 -14.09,1.745 -20.54,2.802 -13.481,3.359 -22.027,8.87 -33.083,16.81 l -14.528,-6.871 c 19.247,-23.861 38.555,-31.782 68.241,-36.034 z"
     id="path32" />
  <path
     fill="#86858d"
     d="m 321.1532,213.31816 c 20.47,-1.611 39.18,1.557 57.91,10.106 6.08,2.777 17.05,6.747 20.09,12.854 -0.28,3.121 0.21,1.911 -2.42,4.532 -1,0.01 -24.45,-11.801 -28.99,-13.454 -10.81,-4.044 -22.2,-6.334 -33.74,-6.782 -30.819,-1.026 -60.75,10.398 -83.045,31.697 -24.126,22.805 -35.08,51.659 -35.947,84.383 0.736,19.259 3.876,35.376 13.099,52.655 2.761,5.174 7.612,10.537 9.337,15.648 -1.746,3.457 -0.854,2.999 -3.686,4.438 -4.61,-1.506 -11.662,-14.335 -13.998,-19.219 -37.71,-78.845 13.427,-169.799 101.39,-176.858 z"
     id="path33" />
  <path
     fill="#86858d"
     d="m 430.0432,265.73616 c 7.45,8.345 14.97,27.769 17.8,38.54 8.49,31.646 3.96,65.373 -12.59,93.653 -16.74,28.508 -44.19,49.134 -76.23,57.278 -34.04,8.679 -64.811,2.067 -94.473,-15.452 l -2.738,-2.148 -0.176,-1.747 c 5.17,-7.802 16.795,3.311 25.636,6.851 28.061,11.296 59.461,10.944 87.261,-0.979 28.33,-12.428 50.59,-35.557 61.93,-64.338 12.14,-31.064 10.34,-65.737 -5.84,-94.318 -1.8,-3.188 -3.42,-7.307 -4.9,-10.717 0.45,-3.176 1.88,-3.82 4.32,-6.623 z"
     id="path34" />
  <path
     fill="#020203"
     d="m 317.2632,180.88816 c 5.87,-8.287 2.83,-4.743 5.43,-13.018 3.07,-1.676 5.14,-0.869 9.15,-0.67 5.31,-0.134 20.87,-0.951 24.99,0.477 -0.52,2.119 -1.01,2.478 -2.39,4.244 -0.58,6.222 -1.42,27.752 2.34,32.044 l -0.77,0.808 c -10.43,-0.444 -26.07,-1.475 -35.99,-0.729 -2.01,-3.858 -1.75,-8.354 -5.07,-14.219 -2.01,3.083 -5.85,8.185 -6.17,11.558 l 2.03,2.094 c -2.04,1.838 -4.02,1.215 -7.444,1.331 l -0.548,-0.852 c 3.462,-6.544 7.082,-10.935 10.452,-16.92 -3.13,-5.92 -7.44,-14.664 -11.134,-19.896 4.684,-0.105 6.944,-0.89 10.734,1.116 2.44,5.332 0.83,5.749 4.39,12.632 z"
     id="path35" />
  <path
     fill="#f4f7fd"
     d="m 319.5432,182.77216 c 3.21,-5.572 6.17,-12.092 11.77,-15.089 4.95,5.276 4.38,25.853 1.34,32.292 l -1.89,1.352 c -5.36,-1.873 -9.38,-13.236 -11.22,-18.555 z"
     id="path36" />
  <path
     fill="#f4f7fd"
     d="m 340.7932,168.65616 c 2.82,0.09 3.2,-0.074 5.39,1.489 2.82,6.226 1.2,24.949 0.91,32.758 -1.69,-0.143 -3.09,-0.493 -4.74,-0.851 -3.67,-4.774 -1.85,-26.082 -1.56,-33.396 z"
     id="path37" />
  <path
     fill="#020203"
     d="m 497.4432,315.94116 c 1.74,2.33 1.71,33.626 -0.34,37.496 -3.63,1.591 -21.38,-2.361 -34.39,0.683 l -0.92,0.223 -1.11,-0.915 c 0.19,-6.688 -0.41,-33.507 0.46,-37.462 6.27,3.882 31.07,4.673 36.3,-0.025 z"
     id="path38" />
  <path
     fill="#f4f7fd"
     d="m 464.4332,325.35616 c 7.24,-0.202 28.01,-2.076 32.39,2.686 -0.04,3.043 0.35,1.863 -1.7,4.413 -6.73,0.082 -25.42,1.232 -31.67,-1.538 -1.23,-0.544 -0.91,-1.199 -1.12,-2.853 z"
     id="path39" />
  <path
     fill="#f4f7fd"
     d="m 462.0032,339.95416 c 7.42,-0.345 29.58,-2.437 34.27,1.618 0.45,2.975 0.6,1.742 -0.92,4.739 -7.63,0.032 -24.73,1.803 -31.81,-1.284 -1.59,-0.692 -1.35,-3.144 -1.54,-5.073 z"
     id="path40" />
  <path
     fill="#020203"
     d="m 177.3552,327.43216 c 6.82,-3.851 16.119,-8.128 21.316,-13.408 -0.042,4.93 0.715,7.953 -1.491,11.883 -7.208,2.636 -5.876,1.058 -12.819,5.459 3.358,2.196 6.447,4.388 10.142,5.962 l 3.276,-2.901 c 1.478,2.196 0.646,18.637 0.516,22.233 -4.457,-3.223 -31.673,-3.049 -36.165,0.881 -1.392,-1.867 -1.752,-23.344 0.028,-25.354 3.448,0.426 4.379,0.184 7.672,-0.384 1.152,-1.047 2.967,-2.01 4.36,-2.839 z"
     id="path41" />
  <path
     fill="#f4f7fd"
     d="m 172.4172,337.46316 c 3.881,-2.213 5.202,-2.97 9.408,-4.37 4.009,2.53 14.927,8.389 15.86,12.452 -5.353,3.46 -30.795,5.039 -35.083,-0.164 1.689,-4.568 5.305,-5.702 9.815,-7.918 z"
     id="path42" />
  <path
     fill="#0f192f"
     d="m 177.3552,327.43216 c 6.82,-3.851 16.119,-8.128 21.316,-13.408 -0.042,4.93 0.715,7.953 -1.491,11.883 -7.208,2.636 -5.876,1.058 -12.819,5.459 -2.139,0.612 -1.354,0.006 -2.536,1.727 -4.206,1.4 -5.527,2.157 -9.408,4.37 -2.945,-2.722 -2.19,-1.257 -2.587,-5.66 1.152,-1.047 2.967,-2.01 4.36,-2.839 z"
     id="path43" />
  <path
     fill="#020203"
     d="m 324.4932,495.82516 c 4.75,-13.891 4.18,-15.983 7.02,-27.959 5.49,0.42 12.07,-0.122 18.27,0.235 l 0.75,0.93 c -5.06,7.299 -2.88,27.305 -0.66,35.595 l -5.31,1.263 c -2.71,-0.232 -3.16,-0.26 -5.63,-1.372 3.61,-4.763 2.78,-29.179 -0.11,-34.608 l -1.59,-0.416 c -6.75,6.099 -7.86,33.871 -15.69,35.507 -6.23,-4.911 -7.8,-28.13 -14.9,-37.074 20.36,-0.295 9.32,1.536 11.09,7.321 2.07,6.917 4.33,13.779 6.76,20.578 z"
     id="path44" />
  <path
     fill="#0f192f"
     d="m 249.3682,300.53616 c 3.367,2.52 6.969,5.123 10.219,7.755 -7.933,16.987 -9.099,22.581 -9.261,40.956 -0.515,-4.31 -0.301,-9.615 -4.976,-11.066 -2.168,2.502 -1.596,3.094 -2.093,6.874 -1.951,-16.999 0.105,-28.668 6.111,-44.519 z"
     id="path45" />
  <path
     fill="#f2c883"
     d="m 184.9632,247.26916 c 6.295,2.74 24.534,13.769 29.854,18.023 0.241,3.157 -1.765,5.349 -3.599,8.172 -9.451,-5.717 -21.027,-12.331 -29.881,-18.647 -0.215,-2.315 2.249,-5.386 3.626,-7.548 z"
     id="path46" />
  <path
     fill="#f2c883"
     d="m 246.8232,187.43616 c 4.829,1.029 16.195,24.005 17.59,29.242 -0.832,3.365 -0.522,2.328 -4.227,4.707 -1.337,0.12 -1.22,-0.055 -2.624,-0.505 -4.811,-7.162 -12.338,-20.303 -15.874,-28.051 0.517,-2.927 2.062,-3.114 5.135,-5.393 z"
     id="path47" />
  <path
     fill="#f2c883"
     d="m 472.9332,247.62916 2.38,0.87 c 2.22,2.621 1.73,1.347 1.83,4.794 -3.43,5.666 -22.24,15.594 -28.86,19.419 -13.95,-7.379 18.51,-21.616 24.65,-25.083 z"
     id="path48" />
  <path
     fill="#f2c883"
     d="m 446.9032,399.12416 c 6.44,2.522 25.66,13.24 30.2,17.923 0.17,3.339 -0.61,3.53 -2.36,6.855 -3.65,-0.161 -25.47,-13.529 -29.66,-16.37 -0.86,-3.029 0.57,-5.32 1.82,-8.408 z"
     id="path49" />
  <path
     fill="#f2c883"
     d="m 210.1032,399.78216 c 1.754,0.27 2.151,0.855 3.723,1.938 0.961,3.581 0.798,4.827 -2.536,7.289 -7.623,5.628 -16.583,10.2 -24.896,14.67 -3.247,-1.267 -4.1,-2.781 -4.055,-5.932 3.633,-5.606 21.097,-14.289 27.764,-17.965 z"
     id="path50" />
  <path
     fill="#f2c883"
     d="m 399.1132,450.66216 c 4.44,1.335 15.73,23.711 17.98,28.876 -0.91,2.764 -2.06,2.751 -4.98,4.724 -4.99,-2.219 -15.55,-22.899 -18.08,-28.622 0.58,-2.755 2.1,-2.915 5.08,-4.978 z"
     id="path51" />
  <path
     fill="#f2c883"
     d="m 410.7132,187.45516 c 3.08,1.65 5.34,2.156 6.63,4.893 -2.06,5.936 -12.49,23.355 -16.17,30.061 -2.79,-1.471 -3.87,-2.15 -6.39,-4.044 -0.25,-5.01 12.65,-25.31 15.93,-30.91 z"
     id="path52" />
  <path
     fill="#f2c883"
     d="m 258.7662,450.39116 c 2.59,1.382 4.826,2.167 6.236,4.623 -1.429,5.141 -12.553,23.781 -15.998,29.853 -2.921,-1.507 -5.84,-2.522 -7.423,-5.219 1.997,-5.006 13.962,-24.027 17.185,-29.257 z"
     id="path53" />
  <path
     fill="#020203"
     d="m 243.2572,345.05516 c 0.497,-3.78 -0.075,-4.372 2.093,-6.874 4.675,1.451 4.461,6.756 4.976,11.066 1.896,15.936 4.782,21.546 11.141,36.267 -10.325,-12.176 -16.197,-24.531 -18.21,-40.459 z"
     id="path54" />
  <path
     fill="#020203"
     d="m 400.9632,289.30416 c 8.98,12.762 15.48,27.768 15.59,43.61 l -2.62,-0.564 c -1.33,0.922 -2.13,1.69 -3.73,1.877 -0.09,-3.184 0.14,-8.352 -1.27,-11.066 -0.86,-15.986 -5.25,-20.291 -7.97,-33.857 z"
     id="path55" />
  <path
     fill="#020203"
     d="m 174.1902,328.96416 c -2.736,-1.764 -5.489,-3.501 -8.258,-5.211 -2.061,0.3 -2.666,1.122 -4.087,2.483 -1.524,-2.906 -0.783,-6.045 -0.403,-9.334 2.767,0.339 12.742,8.245 15.913,10.53 z"
     id="path56" />
  <path
     fill="#dff2f3"
     d="m 279.8642,398.14016 c 1.616,-2.622 2.537,-4.955 5.269,-5.943 l 0.969,0.838 c -0.806,3.007 -3.179,4.817 -5.47,7.111 z"
     id="path57" />
  <path
     fill="#dff2f3"
     d="m 390.1432,260.66116 0.72,1.866 c -2.18,2.3 -4.23,4.886 -7.03,5.303 1.02,-3.269 3.59,-4.86 6.31,-7.169 z"
     id="path58" />
  <path
     fill="#f4f7fd"
     d="m 43.095204,336.47916 c 17.102,-0.002 34.205,0.083 51.306,0.255 0.165,42.837 9.147996,77.239 24.056996,116.79 -15.916,-0.158 -31.832996,-0.081 -47.745996,0.232 -18.266,-40.869 -26.016,-72.548 -27.617,-117.277 z"
     id="path59" />
  <path
     fill="#4994e4"
     d="m 611.2532,336.29516 3.79,0.501 c 2.99,4.043 -1.32,31.583 -2.22,37.381 -2.25,14.552 -4.44,31.894 -14.66,43.25 -9.76,10.836 -13.81,22.09 -17.44,36.092 -5.69,0.032 -11.38,0.011 -17.07,-0.06 -7.55,0.087 -15.1,0.217 -22.66,0.389 0,-0.851 -0.08,-0.422 0.26,-1.24 13.85,-33.842 24.34,-79.787 23.61,-116.216 z"
     id="path60" />
  <path
     fill="#f4f7fd"
     d="m 611.2532,336.29516 3.79,0.501 c 2.99,4.043 -1.32,31.583 -2.22,37.381 -2.25,14.552 -4.44,31.894 -14.66,43.25 -9.76,10.836 -13.81,22.09 -17.44,36.092 -5.69,0.032 -11.38,0.011 -17.07,-0.06 2.04,-13.317 8.65,-13.506 16.38,-23.871 8.44,-11.31 3.83,-34.033 8.05,-44.041 9.15,-21.703 16.33,-24.729 23.17,-49.252 z"
     id="path61" />
  <path
     fill="#f4f7fd"
     d="m 326.0232,558.78616 c -0.06,-5.179 -1.26,-11.961 3.16,-15.277 5.52,1.583 4.07,10.579 3.91,15.406 11.47,-0.066 53.76,-0.925 62.77,0.547 -11.53,2.93 -55.02,-1.74 -59.12,3.028 2.91,2.188 51.33,0.004 54.04,1.926 l -2.07,0.899 2.96,0.717 c 0.63,4.008 -4.82,11.66 -7.36,15.057 -12.29,16.411 -26.79,32.795 -48.09,36.095 -0.96,0.147 -1.93,0.284 -2.89,0.41 -0.13,-3.456 -0.34,-14.32 -0.78,-17.226 -3.63,-6.811 0.9,-25.024 -2.28,-34.237 -5.38,2.992 0.34,19.166 -3.66,24.432 -0.17,9.058 -0.47,18.113 -0.9,27.163 -26.452,-4.93 -48.137,-27.143 -59.287,-50.906 l 0.635,-0.938 5.127,-0.636 -2.336,-0.798 0.05,-0.728 c 6.176,-0.005 52.021,0.268 53.771,-1.231 -7.26,-5.499 -49.555,1.047 -58.372,-3.157 16.527,-1.398 43.272,-0.558 60.722,-0.546 z"
     id="path62" />
  <path
     fill="#f4f7fd"
     d="m 272.1882,565.24616 54.095,0.153 c 0.04,8.17 -0.07,17.066 0.33,25.164 -0.17,9.058 -0.47,18.113 -0.9,27.163 -26.452,-4.93 -48.137,-27.143 -59.287,-50.906 l 0.635,-0.938 z"
     id="path63" />
  <path
     fill="#4888c0"
     d="m 326.0232,558.78616 c -0.06,-5.179 -1.26,-11.961 3.16,-15.277 5.52,1.583 4.07,10.579 3.91,15.406 11.47,-0.066 53.76,-0.925 62.77,0.547 -11.53,2.93 -55.02,-1.74 -59.12,3.028 2.91,2.188 51.33,0.004 54.04,1.926 l -2.07,0.899 c -18.62,0.227 -37.25,0.218 -55.87,-0.028 -0.04,10.117 0.31,25.376 -0.29,35.081 -3.63,-6.811 0.9,-25.024 -2.28,-34.237 -5.38,2.992 0.34,19.166 -3.66,24.432 -0.4,-8.098 -0.29,-16.994 -0.33,-25.164 l -54.095,-0.153 -2.336,-0.798 0.05,-0.728 c 6.176,-0.005 52.021,0.268 53.771,-1.231 -7.26,-5.499 -49.555,1.047 -58.372,-3.157 16.527,-1.398 43.272,-0.558 60.722,-0.546 z"
     id="path64" />
  <path
     fill="#f4f7fd"
     d="m 581.3232,459.32216 2.79,1.091 c 0.38,5.496 -21.37,37.227 -25.93,43.119 -14.28,18.466 -34.74,41.668 -54.12,54.76 -10.8,0.798 -21.56,0.559 -32.39,0.471 3.29,-4.508 7.3,-8.986 11.12,-13.084 12.92,-13.864 23.29,-29.426 33.97,-44.983 1.17,-1.69 3.31,-2.499 5.2,-2.966 -0.41,-10.066 11.58,-26.528 16.29,-38.594 6.94,1.636 15.56,0.185 23.33,1.489 1.74,-0.622 15.87,-0.873 19.74,-1.303 z"
     id="path65" />
  <path
     fill="#4994e4"
     d="m 538.2532,459.13616 c 6.94,1.636 15.56,0.185 23.33,1.489 -15.62,15.074 -14.83,27.353 -39.62,37.105 -0.41,-10.066 11.58,-26.528 16.29,-38.594 z"
     id="path66" />
  <path
     fill="#f4f7fd"
     d="m 42.818204,329.91416 c -0.593,-35.476 6.763,-68.25 18.344,-101.475 1.225,6.256 1.642,14.582 2.347,21.144 2.108,3.398 2.204,5.504 2.833,9.442 -0.013,-2.621 -0.24,-4.011 0.85,-6.425 3.378,5.606 10.274,37.894 10.475,45.979 4.924,8.401 9.61,12.142 16.827,18.383 l -0.017,12.936 z"
     id="path67" />
  <path
     fill="#2e6995"
     d="m 63.509204,249.58316 c 2.108,3.398 2.204,5.504 2.833,9.442 1.327,8.757 3.285,19.514 3.223,28.183 -4.277,-12.072 -6.329,-24.82 -6.056,-37.625 z"
     id="path68" />
  <path
     fill="#4994e4"
     d="m 283.6912,69.721162 c 11.088,-16.617 22.682,-24.577 42.062,-28.654 0.49,8.563 0.6,15.215 0.43,23.79 l -0.18,31.555 h -58.313 c 3.707,-7.587 9.988,-20.755 16.001,-26.691 z"
     id="path69" />
  <path
     fill="#f4f7fd"
     d="m 283.6912,69.721162 c 11.088,-16.617 22.682,-24.577 42.062,-28.654 0.49,8.563 0.6,15.215 0.43,23.79 -10.39,1.458 -33.558,6.417 -42.492,4.864 z"
     id="path70" />
  <path
     fill="#f4f7fd"
     d="m 359.9532,43.582162 c 16.5,3.821 23.55,6.248 38.84,13.214 7.91,4.053 20.3,10.264 26.92,16.267 l -0.41,0.954 c -1.62,0.644 -3.24,1.259 -4.88,1.845 1.69,4.929 19.09,8.436 23.52,10.997 2.71,1.567 7.9,6.74 10.29,9.06 -18.15,-0.081 -36.29,0.093 -54.44,0.522 -10.49,-20.874 -21.17,-38.566 -39.84,-52.859 z"
     id="path71" />
  <path
     fill="#f4f7fd"
     d="m 414.1432,565.39216 38.85,0.307 c -21.06,17.593 -35.84,28.37 -61.29,39.704 -11.39,4.781 -19.08,7.444 -31.13,9.927 18.73,-13.163 29.66,-30.187 40.53,-49.784 z"
     id="path72" />
  <path
     fill="#f4f7fd"
     d="m 332.9632,41.574162 c 3.6,0.15 7.17,0.789 10.6,1.902 23.33,7.509 37.52,32.259 48.11,52.562 h -17.5 l -1.21,0.031 c -23.46,0.589 -8.88,0.278 -20.69,-10.358 5.03,-5.614 8.51,-7.571 13.29,-12.404 l -0.46,-1.233 c -6.42,-0.828 -11.93,2.059 -17.28,1.492 l -0.44,-3.613 c -2.52,-2.183 -10.63,-3.744 -14.31,-4.68 -0.21,-7.737 -0.09,-15.922 -0.11,-23.699 z"
     id="path73" />
  <path
     fill="#f4f7fd"
     d="m 257.4712,564.99416 c 13.106,22.124 20.416,34.135 40.582,49.938 -30.231,-6.092 -50.334,-18.538 -75.206,-35.738 -3.741,-2.785 -13.313,-9.277 -14.936,-12.619 9.253,-4.182 17.171,10.453 25.354,13.335 5.06,1.781 10.701,1.756 16.033,2.016 -4.075,-2.838 -13.99,-8.701 -14.658,-13.598 3.922,-3.658 16.258,-2.706 22.831,-3.334 z"
     id="path74" />
  <path
     fill="#f4f7fd"
     d="m 404.6332,51.969162 c 25.56,3.365 72.12,28.132 93,43.918 l -33.29,0.191 c -5.07,-4.607 -19.85,-17.645 -23.3,-22.291 l 1.66,-2.877 c -1.82,-3.61 -5.68,-1.899 -9.11,-1.031 -5.65,0.711 -4.41,-0.296 -7.88,3.184 -6.62,-6.003 -19.01,-12.214 -26.92,-16.267 1.97,-2.387 2.92,-4.169 5.84,-4.827 z"
     id="path75" />
  <path
     fill="#4888c0"
     d="m 398.7932,56.796162 c 1.97,-2.387 2.92,-4.169 5.84,-4.827 9.16,5.572 20.46,11.857 28.96,17.91 -5.65,0.711 -4.41,-0.296 -7.88,3.184 -6.62,-6.003 -19.01,-12.214 -26.92,-16.267 z"
     id="path76" />
  <path
     fill="#f4f7fd"
     d="m 463.7932,565.23516 30.64,0.521 c -22.07,14.936 -40.24,25.28 -65.38,34.443 -8.42,3.218 -19.3,6.173 -28.08,8.804 25.91,-13.336 41.04,-24.655 62.82,-43.768 z"
     id="path77" />
  <path
     fill="#f4f7fd"
     d="m 165.7452,565.86016 c 7.307,-0.708 22.763,-0.277 30.669,-0.296 16.064,16.359 37.657,29.815 57.345,41.391 -22.049,-1.188 -69.535,-27.836 -88.014,-41.095 z"
     id="path78" />
  <path
     fill="#f4f7fd"
     d="m 212.6002,80.648162 c -3.534,3.478 -3.787,2.81 -8.039,2.778 -3.777,2.143 -3.441,5.998 -6.019,9.241 -4.528,5.694 -10.43,0.825 -16.018,2.397 -1.198,0.337 -3.803,0.673 -5.027,0.879 -3.463,-2.159 -5.123,-0.755 -8.713,-2.079 l -0.155,-2.452 c 3.732,-6.389 7.63,-2.541 14.663,-5.661 0.484,-1.286 0.987,-2.584 1.627,-3.803 4.696,-8.957 60.147,-27.883 71.981,-31.449 -10.025,6.006 -20.082,11.958 -30.171,17.856 -8.441,-0.999 -17.766,1.919 -14.129,12.293 z"
     id="path79" />
  <path
     fill="#f4f7fd"
     d="m 292.9332,45.060162 2.568,-0.377 0.806,0.869 c -9.59,7.823 -13.237,13.191 -20.82,22.697 -7.823,-2.874 -11.51,-3.297 -19.539,-3.7 l -10.388,-0.153 c 18.631,-9.928 26.894,-14.198 47.373,-19.336 z"
     id="path80" />
  <path
     fill="#f4f7fd"
     d="m 238.5922,531.02916 c 6.81,1.453 12.593,20.461 15.547,27.382 -3.859,0.259 -8.92,0.208 -12.886,0.289 -17.038,0.849 -6.255,-7.654 -9.513,-17.209 -0.511,-1.498 -0.245,-1.134 0.312,-2.487 6.148,-2.19 4.968,-2.058 6.54,-7.975 z"
     id="path81" />
  <path
     fill="#f4f7fd"
     d="m 565.0832,263.89716 c 17.55,16.785 23.93,35.323 32.02,57.221 l -1.82,0.768 c -10.67,-14.39 -24.22,-41.259 -30.2,-57.989 z"
     id="path82" />
  <path
     fill="#f4f7fd"
     d="m 597.1032,321.11816 c 7.75,-4.269 12.81,-11.645 18,-18.702 0.33,5.771 1.91,22.816 0.02,26.989 l -0.7,0.632 -1.24,-0.475 c -0.43,-2.531 -0.81,-4.768 -1.41,-7.283 -5.42,0.27 -7.62,7.353 -13.97,4.741 -0.84,-1.666 -1.77,-3.445 -2.52,-5.134 z"
     id="path83" />
  <path
     fill="#f4f7fd"
     d="m 559.1332,234.48316 1.86,-0.579 1.67,1.426 c 1.78,5.214 2.33,9.251 0.15,14.742 -1.23,3.087 -4.19,3.288 -7.65,4.469 -1.86,-5.366 -5.67,-13.271 -4.33,-18.188 2.93,-2.305 3.8,-1.575 8.3,-1.87 z"
     id="path84" />
  <path
     fill="#4888c0"
     d="m 563.6532,453.45916 c 5.69,0.071 11.38,0.092 17.07,0.06 0.1,1.734 0.14,4.225 0.6,5.803 -3.87,0.43 -18,0.681 -19.74,1.303 -7.77,-1.304 -16.39,0.147 -23.33,-1.489 6.49,-3.451 19.17,3.197 23.58,-2.331 -3.56,-3.206 -14.4,-1.816 -19.68,-1.753 l -1.16,-1.204 c 7.56,-0.172 15.11,-0.302 22.66,-0.389 z"
     id="path85" />
  <path
     fill="#dff2f3"
     d="m 475.6632,103.25416 c 10.54,-0.329 21.08,-0.403 31.61,-0.223 2.13,2.118 4.21,4.118 6.1,6.459 l -0.24,1.678 -3.82,1.628 -1.12,-1.83 -0.66,2.367 c -9.51,-5.844 -20.92,-7.612 -31.87,-10.079 z"
     id="path86" />
  <path
     fill="#f4f7fd"
     d="m 161.4172,109.81716 c 7.09,0.155 6.329,0.817 10.221,-5.482 2.701,-1.468 3.774,-1.221 6.812,-1.059 l 1.435,1.454 c -0.062,9.224 -13.171,15.729 -19.299,6.555 z"
     id="path87" />
  <path
     fill="#dff2f3"
     d="m 245.6102,79.188162 c 9.37,-3.661 14.896,-5.718 24.891,-7.557 l 0.208,0.538 c -11.239,4.966 -11.137,9.255 -23.915,8.89 z"
     id="path88" />
  <path
     fill="#f4f7fd"
     d="m 597.0032,251.67916 c 7.55,4.358 12.92,10.664 12.51,19.567 -6.51,-2.833 -10.98,-13.042 -12.51,-19.567 z"
     id="path89" />
  <path
     fill="#f4f7fd"
     d="m 507.5332,113.33316 0.66,-2.367 1.12,1.83 c 0.74,4.813 2.02,9.666 -3.08,11.733 -3.41,-0.677 -6.38,-2.591 -7.48,-5.995 5.39,-0.752 6.47,-0.29 8.78,-5.201 z"
     id="path90" />
  <path
     fill="#dff2f3"
     d="m 160.5862,111.28516 c -6.298,1.381 -6.09,2.255 -11.293,-0.214 l -0.291,-1.367 c 4.272,-2.366 6.957,-0.924 12.415,0.113 z"
     id="path91" />
  <path
     fill="#b3dbf7"
     d="m 221.5542,96.402162 c -5.121,0.087 -8.145,0.278 -13.238,-0.8 l -0.601,-0.929 c 4.637,-1.425 10.568,-0.768 15.525,-0.547 l -0.639,1.818 z"
     id="path92" />
  <path
     fill="#b3dbf7"
     d="m 223.5302,90.549162 c -3.243,0.22 -7.363,0.817 -9.777,-1.234 l 1.109,-1.249 c 4.165,-1.245 7.117,0.164 11.3,1.483 -2.047,0.372 -1.518,-0.129 -2.632,1 z"
     id="path93" />
</svg>
